<svg xmlns="http://www.w3.org/2000/svg" width="22.343" height="24.374" viewBox="0 0 22.343 24.374">
  <path id="Icon_ion-md-bus" data-name="Icon ion-md-bus" d="M2.5,20.28c0,1.219.88,1.557,1.693,2.3V25.02a1.358,1.358,0,0,0,1.354,1.354H6.9A1.358,1.358,0,0,0,8.255,25.02V23.666H19.088V25.02a1.358,1.358,0,0,0,1.354,1.354H21.8A1.358,1.358,0,0,0,23.15,25.02V22.583c.813-.745,1.693-1.151,1.693-2.3V7.353C24.843,2.614,19.629,2,13.671,2S2.5,2.614,2.5,7.353ZM7.578,21.3a2.031,2.031,0,1,1,2.031-2.031A1.995,1.995,0,0,1,7.578,21.3Zm12.187,0A2.031,2.031,0,1,1,21.8,19.264,1.995,1.995,0,0,1,19.765,21.3ZM21.8,13.51H5.547V6.739H21.8Z" transform="translate(-2.5 -2)" fill="#fff"/>
</svg>
