<svg xmlns="http://www.w3.org/2000/svg" width="27.318" height="23.903" viewBox="0 0 27.318 23.903">
  <path id="Icon_fa-solid-car-rear" data-name="Icon fa-solid-car-rear" d="M8.825,4.415h9.668A1.709,1.709,0,0,1,20.1,5.557L21.5,9.537H5.821l1.393-3.98A1.709,1.709,0,0,1,8.825,4.415Zm-4.834.016L2.113,9.793A3.421,3.421,0,0,0,0,12.951V17.22a3.408,3.408,0,0,0,1.707,2.956V23.2A1.706,1.706,0,0,0,3.415,24.9H5.122A1.706,1.706,0,0,0,6.829,23.2V20.635H20.488V23.2A1.706,1.706,0,0,0,22.2,24.9H23.9A1.706,1.706,0,0,0,25.61,23.2v-3.02a3.415,3.415,0,0,0,1.707-2.956V12.951A3.421,3.421,0,0,0,25.2,9.793L23.327,4.431A5.123,5.123,0,0,0,18.493,1H8.825A5.123,5.123,0,0,0,3.991,4.431ZM11.1,13.805H16.22a.856.856,0,0,1,.854.854v1.707a.856.856,0,0,1-.854.854H11.1a.856.856,0,0,1-.854-.854V14.659A.856.856,0,0,1,11.1,13.805Zm-8.537.427a1.277,1.277,0,0,1,1.281-1.281H5.549a1.281,1.281,0,1,1,0,2.561H3.842A1.277,1.277,0,0,1,2.561,14.232Zm19.208-1.281h1.707a1.281,1.281,0,0,1,0,2.561H21.769a1.281,1.281,0,1,1,0-2.561Z" transform="translate(0 -1)" fill="#fff"/>
</svg>
