<svg width="38" height="37" viewBox="0 0 38 37" fill="none" xmlns="http://www.w3.org/2000/svg">
<mask id="mask0_11084_143694" style="mask-type:alpha" maskUnits="userSpaceOnUse" x="0" y="0" width="38" height="37">
<rect x="0.714722" width="36.5714" height="36.5714" fill="#D9D9D9"/>
</mask>
<g mask="url(#mask0_11084_143694)">
<path d="M17.4767 19.8091H9.85767C9.42593 19.8091 9.06402 19.6631 8.77196 19.371C8.47989 19.079 8.33386 18.7171 8.33386 18.2853C8.33386 17.8536 8.47989 17.4917 8.77196 17.1996C9.06402 16.9075 9.42593 16.7615 9.85767 16.7615H17.4767V9.14246C17.4767 8.71072 17.6228 8.34881 17.9148 8.05675C18.2069 7.76468 18.5688 7.61865 19.0005 7.61865C19.4323 7.61865 19.7942 7.76468 20.0862 8.05675C20.3783 8.34881 20.5243 8.71072 20.5243 9.14246V16.7615H28.1434C28.5751 16.7615 28.937 16.9075 29.2291 17.1996C29.5212 17.4917 29.6672 17.8536 29.6672 18.2853C29.6672 18.7171 29.5212 19.079 29.2291 19.371C28.937 19.6631 28.5751 19.8091 28.1434 19.8091H20.5243V27.4282C20.5243 27.8599 20.3783 28.2218 20.0862 28.5139C19.7942 28.806 19.4323 28.952 19.0005 28.952C18.5688 28.952 18.2069 28.806 17.9148 28.5139C17.6228 28.2218 17.4767 27.8599 17.4767 27.4282V19.8091Z" fill="white"/>
</g>
</svg>
