<svg width="25" height="24" viewBox="0 0 25 24" fill="none" xmlns="http://www.w3.org/2000/svg">
<path d="M18.0001 11.0998L16.8001 11.0998C16.5451 11.0998 16.3313 11.0141 16.1588 10.8426C15.9863 10.6711 15.9001 10.4586 15.9001 10.2051C15.9001 9.95156 15.9863 9.7373 16.1588 9.5623C16.3313 9.3873 16.5451 9.2998 16.8001 9.2998L18.0001 9.2998L18.0001 8.0998C18.0001 7.8448 18.0858 7.63105 18.2573 7.45855C18.4288 7.28605 18.6413 7.1998 18.8948 7.1998C19.1483 7.1998 19.3626 7.28605 19.5376 7.45855C19.7126 7.63105 19.8001 7.8448 19.8001 8.0998L19.8001 9.2998L21.0001 9.2998C21.2551 9.2998 21.4688 9.38554 21.6413 9.55703C21.8138 9.72853 21.9001 9.94103 21.9001 10.1945C21.9001 10.448 21.8138 10.6623 21.6413 10.8373C21.4688 11.0123 21.2551 11.0998 21.0001 11.0998L19.8001 11.0998L19.8001 12.2998C19.8001 12.5548 19.7143 12.7686 19.5428 12.9411C19.3713 13.1136 19.1588 13.1998 18.9053 13.1998C18.6518 13.1998 18.4376 13.1136 18.2626 12.9411C18.0876 12.7686 18.0001 12.5548 18.0001 12.2998L18.0001 11.0998ZM9.90007 11.9998C8.90007 11.9998 8.05007 11.6498 7.35007 10.9498C6.65007 10.2498 6.30007 9.3998 6.30007 8.3998C6.30007 7.3998 6.65007 6.5498 7.35007 5.8498C8.05007 5.1498 8.90007 4.7998 9.90007 4.7998C10.9001 4.7998 11.7501 5.1498 12.4501 5.8498C13.1501 6.5498 13.5001 7.3998 13.5001 8.3998C13.5001 9.3998 13.1501 10.2498 12.4501 10.9498C11.7501 11.6498 10.9001 11.9998 9.90007 11.9998ZM2.70007 17.3998L2.70007 16.8998C2.70007 16.4701 2.80424 16.0752 3.01257 15.7151C3.22091 15.3549 3.50841 15.0665 3.87507 14.8498C4.79174 14.3165 5.75841 13.9081 6.77507 13.6248C7.79174 13.3415 8.83341 13.1998 9.90007 13.1998C10.9667 13.1998 12.0084 13.3415 13.0251 13.6248C14.0417 13.9081 15.0084 14.3165 15.9251 14.8498C16.2917 15.0665 16.5792 15.3549 16.7876 15.7151C16.9959 16.0752 17.1001 16.4701 17.1001 16.8998L17.1001 17.3998C17.1001 17.8948 16.9237 18.3186 16.571 18.6711C16.2183 19.0236 15.7943 19.1998 15.2991 19.1998L4.493 19.1998C3.99772 19.1998 3.57507 19.0236 3.22507 18.6711C2.87507 18.3186 2.70007 17.8948 2.70007 17.3998ZM4.50007 17.3998L15.3001 17.3998L15.3001 16.8998C15.3001 16.792 15.2749 16.6939 15.2244 16.6057C15.174 16.5174 15.1076 16.4488 15.0251 16.3998C14.2417 15.9498 13.4167 15.604 12.5501 15.3623C11.6834 15.1206 10.8001 14.9998 9.90007 14.9998C9.00007 14.9998 8.11674 15.1206 7.25007 15.3623C6.38341 15.604 5.55841 15.9498 4.77507 16.3998C4.69257 16.4488 4.62612 16.5174 4.5757 16.6057C4.52528 16.6939 4.50007 16.792 4.50007 16.8998L4.50007 17.3998ZM9.90537 10.1998C10.4018 10.1998 10.8251 10.023 11.1751 9.6695C11.5251 9.31595 11.7001 8.89095 11.7001 8.3945C11.7001 7.89804 11.5233 7.4748 11.1698 7.1248C10.8162 6.7748 10.3912 6.5998 9.89477 6.5998C9.39831 6.5998 8.97507 6.77657 8.62507 7.1301C8.27507 7.48365 8.10007 7.90865 8.10007 8.4051C8.10007 8.90157 8.27684 9.3248 8.63037 9.6748C8.98392 10.0248 9.40892 10.1998 9.90537 10.1998Z" fill="#5B6874"/>
</svg>
