<svg width="24" height="24" viewBox="0 0 24 24" fill="none" xmlns="http://www.w3.org/2000/svg">
<mask id="mask0_22060_12589" style="mask-type:alpha" maskUnits="userSpaceOnUse" x="0" y="0" width="24" height="24">
<rect x="0.720947" width="23.2" height="23.8952" fill="#D9D9D9"/>
</mask>
<g mask="url(#mask0_22060_12589)">
<path d="M4.26539 19.9126C3.83039 19.9126 3.45313 19.7453 3.13359 19.4106C2.81406 19.076 2.6543 18.6902 2.6543 18.2532V5.6418C2.6543 5.20483 2.81406 4.81903 3.13359 4.4844C3.45313 4.14975 3.83039 3.98242 4.26539 3.98242H10.0574C10.2722 3.98242 10.4803 4.02667 10.6817 4.11517C10.8831 4.20368 11.0562 4.32261 11.2012 4.47195L12.3371 5.6418H20.3765C20.8008 5.6418 21.1754 5.80912 21.5003 6.14377C21.8252 6.4784 21.9876 6.86421 21.9876 7.3012V11.6073C21.4237 11.1814 20.8169 10.8551 20.1671 10.6283C19.5173 10.4015 18.8379 10.2881 18.129 10.2881C16.2923 10.2881 14.7604 10.945 13.5333 12.2586C12.3062 13.5723 11.6926 15.1252 11.6926 16.9174C11.6926 17.4484 11.7517 17.9628 11.8699 18.4606C11.988 18.9584 12.1599 19.4424 12.3854 19.9126H4.26539Z" fill="#6654FE"/>
</g>
<path d="M15.6748 21.6552C15.3408 21.6552 15.0608 21.5397 14.8349 21.3087C14.6089 21.0778 14.496 20.7916 14.496 20.4501V16.8349C14.496 16.4935 14.6089 16.2073 14.8349 15.9763C15.0608 15.7454 15.3408 15.6299 15.6748 15.6299H15.7043V14.4431C15.7043 13.7569 15.9413 13.1694 16.4153 12.6807C16.8893 12.1921 17.459 11.9478 18.1246 11.9478C18.7902 11.9478 19.3588 12.1921 19.8303 12.6807C20.3019 13.1694 20.5376 13.7569 20.5376 14.4431V15.6299H20.5671C20.9011 15.6299 21.1811 15.7454 21.407 15.9763C21.633 16.2073 21.746 16.4935 21.746 16.8349V20.4501C21.746 20.7916 21.633 21.0778 21.407 21.3087C21.1811 21.5397 20.9011 21.6552 20.5671 21.6552H15.6748ZM16.8832 15.6299H19.3588V14.4431C19.3588 14.0576 19.2458 13.7482 19.0199 13.5149C18.7939 13.2816 18.4943 13.165 18.121 13.165C17.7477 13.165 17.448 13.2816 17.2221 13.5149C16.9961 13.7482 16.8832 14.0576 16.8832 14.4431V15.6299Z" fill="#6654FE"/>
</svg>
