<svg width="24" height="24" viewBox="0 0 24 24" fill="none" xmlns="http://www.w3.org/2000/svg">
<path d="M10.6528 16.5004L10.6528 19.5254C10.6528 19.7733 10.569 19.9811 10.4013 20.1488C10.2335 20.3165 10.0257 20.4004 9.77781 20.4004H4.33811C4.08124 20.4004 3.86947 20.3165 3.70281 20.1488C3.53614 19.9811 3.45281 19.7733 3.45281 19.5254L3.45281 16.5004C3.45281 16.2454 3.53666 16.0316 3.70436 15.8591C3.87208 15.6866 4.07989 15.6004 4.32781 15.6004H9.76751C10.0244 15.6004 10.2361 15.6866 10.4028 15.8591C10.5695 16.0316 10.6528 16.2454 10.6528 16.5004ZM20.2528 11.6754L20.2528 19.5254C20.2528 19.7733 20.1662 19.9811 19.993 20.1488C19.8198 20.3165 19.6052 20.4004 19.3492 20.4004H13.9278C13.6945 20.4004 13.4903 20.3165 13.3153 20.1488C13.1403 19.9811 13.0528 19.7733 13.0528 19.5254L13.0528 11.6754C13.0528 11.4421 13.1403 11.2379 13.3153 11.0629C13.4903 10.8879 13.6945 10.8004 13.9278 10.8004H19.3492C19.6052 10.8004 19.8198 10.8879 19.993 11.0629C20.1662 11.2379 20.2528 11.4421 20.2528 11.6754ZM10.6528 4.50039L10.6528 12.3004C10.6528 12.5554 10.569 12.7691 10.4013 12.9416C10.2335 13.1141 10.0257 13.2004 9.77781 13.2004H4.33811C4.08124 13.2004 3.86947 13.1141 3.70281 12.9416C3.53614 12.7691 3.45281 12.5554 3.45281 12.3004L3.45281 4.50039C3.45281 4.24539 3.53666 4.03164 3.70436 3.85914C3.87208 3.68664 4.07989 3.60039 4.32781 3.60039H9.76751C10.0244 3.60039 10.2361 3.68664 10.4028 3.85914C10.5695 4.03164 10.6528 4.24539 10.6528 4.50039ZM20.2528 4.50039L20.2528 7.55039C20.2528 7.79831 20.1662 8.00612 19.993 8.17384C19.8198 8.34154 19.6052 8.42539 19.3492 8.42539H13.9278C13.6945 8.42539 13.4903 8.34154 13.3153 8.17384C13.1403 8.00612 13.0528 7.79831 13.0528 7.55039L13.0528 4.50039C13.0528 4.24539 13.1403 4.03164 13.3153 3.85914C13.4903 3.68664 13.6945 3.60039 13.9278 3.60039H19.3492C19.6052 3.60039 19.8198 3.68664 19.993 3.85914C20.1662 4.03164 20.2528 4.24539 20.2528 4.50039ZM18.4528 12.6004H14.8528L14.8528 18.6004H18.4528L18.4528 12.6004ZM8.85281 5.40039L5.25281 5.40039L5.25281 11.4004L8.85281 11.4004L8.85281 5.40039ZM8.85281 17.3754H5.25281L5.25281 18.6004H8.85281L8.85281 17.3754ZM18.4528 5.40039H14.8528L14.8528 6.62539H18.4528L18.4528 5.40039Z" fill="#5B6874"/>
</svg>
