<svg width="25" height="24" viewBox="0 0 25 24" fill="none" xmlns="http://www.w3.org/2000/svg">
<mask id="mask0_22060_12585" style="mask-type:alpha" maskUnits="userSpaceOnUse" x="0" y="0" width="25" height="24">
<rect x="0.5" width="24" height="24" fill="#D9D9D9"/>
</mask>
<g mask="url(#mask0_22060_12585)">
<path d="M17.8682 9.66628C17.1413 9.66628 16.5057 9.44591 15.9612 9.00517C15.4168 8.56442 15.0668 8.00702 14.9112 7.33294H10.0679C9.9264 7.89035 9.65797 8.36674 9.2626 8.76211C8.86723 9.15748 8.39084 9.42592 7.83343 9.56742V14.4107C8.5075 14.5663 9.06491 14.9163 9.50565 15.4607C9.94639 16.0052 10.1668 16.6408 10.1668 17.3677C10.1668 18.2093 9.87186 18.9251 9.28204 19.5149C8.69223 20.1047 7.97602 20.3996 7.13343 20.3996C6.29084 20.3996 5.57463 20.1047 4.98482 19.5149C4.39501 18.9251 4.1001 18.2093 4.1001 17.3677C4.1001 16.6408 4.32047 16.0052 4.76121 15.4607C5.20195 14.9163 5.75936 14.5663 6.43343 14.4107V9.56905C5.75936 9.4135 5.20195 9.06614 4.76121 8.52699C4.32047 7.98783 4.1001 7.35881 4.1001 6.63992C4.1001 5.79268 4.39501 5.07415 4.98482 4.48433C5.57463 3.89452 6.29317 3.59961 7.14041 3.59961C7.8593 3.59961 8.48832 3.81998 9.02747 4.26072C9.56663 4.70146 9.91399 5.25887 10.0695 5.93294H14.9112C15.0668 5.25887 15.4168 4.70146 15.9612 4.26072C16.5057 3.81998 17.1413 3.59961 17.8682 3.59961C18.7098 3.59961 19.4256 3.89452 20.0154 4.48433C20.6052 5.07415 20.9001 5.79035 20.9001 6.63294C20.9001 7.47554 20.6052 8.19174 20.0154 8.78155C19.4256 9.37137 18.7098 9.66628 17.8682 9.66628ZM7.13343 18.9996C7.5826 18.9996 7.96711 18.8408 8.28697 18.5232C8.60683 18.2056 8.76676 17.82 8.76676 17.3663C8.76676 16.9171 8.60683 16.5326 8.28697 16.2127C7.96711 15.8929 7.5826 15.7329 7.13343 15.7329C6.67973 15.7329 6.29408 15.8929 5.97649 16.2127C5.65889 16.5326 5.5001 16.9171 5.5001 17.3663C5.5001 17.82 5.65889 18.2056 5.97649 18.5232C6.29408 18.8408 6.67973 18.9996 7.13343 18.9996ZM7.13343 8.26628C7.5826 8.26628 7.96711 8.10587 8.28697 7.78507C8.60683 7.46426 8.76676 7.07861 8.76676 6.62812C8.76676 6.17763 8.60683 5.79359 8.28697 5.476C7.96711 5.15841 7.5826 4.99961 7.13343 4.99961C6.67973 4.99961 6.29408 5.16001 5.97649 5.48082C5.65889 5.80163 5.5001 6.18728 5.5001 6.63776C5.5001 7.08825 5.65889 7.47229 5.97649 7.78989C6.29408 8.10748 6.67973 8.26628 7.13343 8.26628ZM17.8578 20.3996C17.0212 20.3996 16.308 20.1047 15.7182 19.5149C15.1283 18.9251 14.8334 18.2119 14.8334 17.3752C14.8334 16.5386 15.1283 15.8224 15.7182 15.2266C16.308 14.6308 17.0212 14.3329 17.8578 14.3329C18.6944 14.3329 19.4107 14.6308 20.0064 15.2266C20.6022 15.8224 20.9001 16.5386 20.9001 17.3752C20.9001 18.2119 20.6022 18.9251 20.0064 19.5149C19.4107 20.1047 18.6944 20.3996 17.8578 20.3996ZM17.8716 18.9996C18.3221 18.9996 18.7061 18.8408 19.0237 18.5232C19.3413 18.2056 19.5001 17.82 19.5001 17.3663C19.5001 16.9171 19.3397 16.5326 19.0189 16.2127C18.6981 15.8929 18.3124 15.7329 17.8619 15.7329C17.4115 15.7329 17.0274 15.8929 16.7098 16.2127C16.3922 16.5326 16.2334 16.9171 16.2334 17.3663C16.2334 17.82 16.3938 18.2056 16.7146 18.5232C17.0354 18.8408 17.4211 18.9996 17.8716 18.9996ZM17.8716 8.26628C18.3221 8.26628 18.7061 8.10587 19.0237 7.78507C19.3413 7.46426 19.5001 7.07861 19.5001 6.62812C19.5001 6.17763 19.3397 5.79359 19.0189 5.476C18.6981 5.15841 18.3124 4.99961 17.8619 4.99961C17.4115 4.99961 17.0274 5.16001 16.7098 5.48082C16.3922 5.80163 16.2334 6.18728 16.2334 6.63776C16.2334 7.08825 16.3938 7.47229 16.7146 7.78989C17.0354 8.10748 17.4211 8.26628 17.8716 8.26628Z" fill="#5B6874"/>
</g>
</svg>
