<svg width="40" height="41" viewBox="0 0 40 41" fill="none" xmlns="http://www.w3.org/2000/svg">
<rect opacity="0.5" y="0.5" width="40" height="40" rx="6.80851" fill="#F6F6DE"/>
<path d="M10.5002 29.8075C9.83388 29.8075 9.26345 29.5702 8.78893 29.0957C8.31441 28.6212 8.07715 28.0507 8.07715 27.3844V12.8459C8.07715 12.1796 8.31441 11.6091 8.78893 11.1346C9.26345 10.6601 9.83388 10.4229 10.5002 10.4229H17.7695L20.1925 12.8459H29.8848C30.5512 12.8459 31.1216 13.0832 31.5961 13.5577C32.0707 14.0322 32.3079 14.6027 32.3079 15.269V27.3844C32.3079 28.0507 32.0707 28.6212 31.5961 29.0957C31.1216 29.5702 30.5512 29.8075 29.8848 29.8075H10.5002Z" fill="#E3DA00"/>
</svg>
