<svg width="16" height="12" viewBox="0 0 16 12" fill="none" xmlns="http://www.w3.org/2000/svg">
<path d="M12.7295 5.58317C12.2712 5.58317 11.8788 5.41998 11.5524 5.09359C11.226 4.7672 11.0628 4.37484 11.0628 3.9165V1.83317C11.0628 1.37484 11.226 0.982476 11.5524 0.656087C11.8788 0.329698 12.2712 0.166504 12.7295 0.166504H13.8337C14.292 0.166504 14.6844 0.329698 15.0107 0.656087C15.3371 0.982476 15.5003 1.37484 15.5003 1.83317V3.9165C15.5003 4.37484 15.3371 4.7672 15.0107 5.09359C14.6844 5.41998 14.292 5.58317 13.8337 5.58317H12.7295ZM7.45866 5.58317C7.00033 5.58317 6.60797 5.41998 6.28158 5.09359C5.95519 4.7672 5.792 4.37484 5.792 3.9165V1.83317C5.792 1.37484 5.95519 0.982476 6.28158 0.656087C6.60797 0.329698 7.00033 0.166504 7.45866 0.166504H8.56283C9.02116 0.166504 9.41352 0.329698 9.73991 0.656087C10.0663 0.982476 10.2295 1.37484 10.2295 1.83317V3.9165C10.2295 4.37484 10.0663 4.7672 9.73991 5.09359C9.41352 5.41998 9.02116 5.58317 8.56283 5.58317H7.45866ZM2.18783 5.58317C1.7295 5.58317 1.33714 5.41998 1.01075 5.09359C0.684358 4.7672 0.521164 4.37484 0.521164 3.9165V1.83317C0.521164 1.37484 0.684358 0.982476 1.01075 0.656087C1.33714 0.329698 1.7295 0.166504 2.18783 0.166504H3.292C3.75033 0.166504 4.14269 0.329698 4.46908 0.656087C4.79547 0.982476 4.95866 1.37484 4.95866 1.83317V3.9165C4.95866 4.37484 4.79547 4.7672 4.46908 5.09359C4.14269 5.41998 3.75033 5.58317 3.292 5.58317H2.18783ZM2.18783 11.8332C1.7295 11.8332 1.33714 11.67 1.01075 11.3436C0.684358 11.0172 0.521164 10.6248 0.521164 10.1665V8.08317C0.521164 7.62484 0.684358 7.23248 1.01075 6.90609C1.33714 6.5797 1.7295 6.4165 2.18783 6.4165H3.292C3.75033 6.4165 4.14269 6.5797 4.46908 6.90609C4.79547 7.23248 4.95866 7.62484 4.95866 8.08317V10.1665C4.95866 10.6248 4.79547 11.0172 4.46908 11.3436C4.14269 11.67 3.75033 11.8332 3.292 11.8332H2.18783ZM7.45866 11.8332C7.00033 11.8332 6.60797 11.67 6.28158 11.3436C5.95519 11.0172 5.792 10.6248 5.792 10.1665V8.08317C5.792 7.62484 5.95519 7.23248 6.28158 6.90609C6.60797 6.5797 7.00033 6.4165 7.45866 6.4165H8.56283C9.02116 6.4165 9.41352 6.5797 9.73991 6.90609C10.0663 7.23248 10.2295 7.62484 10.2295 8.08317V10.1665C10.2295 10.6248 10.0663 11.0172 9.73991 11.3436C9.41352 11.67 9.02116 11.8332 8.56283 11.8332H7.45866ZM12.7295 11.8332C12.2712 11.8332 11.8788 11.67 11.5524 11.3436C11.226 11.0172 11.0628 10.6248 11.0628 10.1665V8.08317C11.0628 7.62484 11.226 7.23248 11.5524 6.90609C11.8788 6.5797 12.2712 6.4165 12.7295 6.4165H13.8337C14.292 6.4165 14.6844 6.5797 15.0107 6.90609C15.3371 7.23248 15.5003 7.62484 15.5003 8.08317V10.1665C15.5003 10.6248 15.3371 11.0172 15.0107 11.3436C14.6844 11.67 14.292 11.8332 13.8337 11.8332H12.7295Z" fill="#001A43"/>
</svg>
