<svg xmlns="http://www.w3.org/2000/svg" width="25" height="25" viewBox="0 0 25 25">
  <path id="Icon_metro-info" data-name="Icon metro-info" d="M12.651,8.707a1.175,1.175,0,0,1,1.172-1.172H14.6a1.175,1.175,0,0,1,1.172,1.172v.781A1.175,1.175,0,0,1,14.6,10.66h-.781a1.175,1.175,0,0,1-1.172-1.172V8.707Zm4.688,11.328h-6.25V18.473h1.563V13.785H11.089V12.223h4.688v6.25h1.563ZM14.214,1.285a12.5,12.5,0,1,0,12.5,12.5,12.5,12.5,0,0,0-12.5-12.5Zm0,22.656A10.156,10.156,0,1,1,24.37,13.785,10.156,10.156,0,0,1,14.214,23.942Z" transform="translate(-1.714 -1.285)" fill="#29c4d3"/>
</svg>
