<svg xmlns="http://www.w3.org/2000/svg" width="24.5" height="27.342" viewBox="0 0 24.5 27.342">
  <g id="Icon_feather-clipboard" data-name="Icon feather-clipboard" transform="translate(-3.25 -1.25)">
    <path id="Path_7" data-name="Path 7" d="M21.25,4h2.875A2.769,2.769,0,0,1,27,6.649V25.193a2.769,2.769,0,0,1-2.875,2.649H6.875A2.769,2.769,0,0,1,4,25.193V6.649A2.769,2.769,0,0,1,6.875,4H9.75" fill="none" stroke="#0dbdce" stroke-linecap="round" stroke-linejoin="round" stroke-width="1.5"/>
    <path id="Path_8" data-name="Path 8" d="M9,2h6a1,1,0,0,1,1,1V5a1,1,0,0,1-1,1H9A1,1,0,0,1,8,5V3A1,1,0,0,1,9,2Z" transform="translate(3.5)" fill="none" stroke="#0dbdce" stroke-linecap="round" stroke-linejoin="round" stroke-width="1.5"/>
  </g>
</svg>
