<svg xmlns="http://www.w3.org/2000/svg" width="14" height="14" viewBox="0 0 14 14">
  <path id="Icon_awesome-pencil-alt" data-name="Icon awesome-pencil-alt" d="M13.615,3.887,12.355,5.147a.328.328,0,0,1-.465,0L8.855,2.112a.328.328,0,0,1,0-.465L10.115.386a1.315,1.315,0,0,1,1.857,0L13.615,2.03A1.31,1.31,0,0,1,13.615,3.887ZM7.772,2.73.591,9.911l-.58,3.322a.657.657,0,0,0,.76.76l3.322-.582L11.275,6.23a.328.328,0,0,0,0-.465L8.239,2.73A.332.332,0,0,0,7.772,2.73ZM3.394,9.3a.381.381,0,0,1,0-.541L7.6,4.543a.383.383,0,0,1,.541.541L3.935,9.3A.381.381,0,0,1,3.394,9.3Zm-.987,2.3H3.719v.993L1.955,12.9l-.85-.85.309-1.764h.993Z" transform="translate(-0.001 -0.003)" fill="#adadad"/>
</svg>
