<svg xmlns="http://www.w3.org/2000/svg" width="31.047" height="21.07" viewBox="0 0 31.047 21.07">
  <g id="Icon_ionic-ios-people" data-name="Icon ionic-ios-people" transform="translate(-1.477 -5.166)">
    <path id="Path_9" data-name="Path 9" d="M24.722,21.376c-.927-.289-2.443-.3-3.114-.527a4.712,4.712,0,0,1-1.441-.585,6.809,6.809,0,0,1-.24-2.058,3.4,3.4,0,0,0,.82-1.011,9.93,9.93,0,0,0,.4-1.986s.547.2.762-.751c.182-.823.53-1.256.439-1.863s-.48-.462-.48-.462a4.828,4.828,0,0,0,.48-2.7c0-2.152-1.863-4.267-5.349-4.267s-5.358,2.123-5.358,4.267a4.9,4.9,0,0,0,.472,2.7s-.389-.144-.48.462.248,1.04.439,1.863c.215.96.762.751.762.751a10.026,10.026,0,0,0,.4,1.986,3.4,3.4,0,0,0,.82,1.011,6.809,6.809,0,0,1-.24,2.058,4.54,4.54,0,0,1-1.441.578c-.662.224-2.178.253-3.114.542a5.243,5.243,0,0,0-3.793,4.852H28.506A5.23,5.23,0,0,0,24.722,21.376Z" fill="#29c4d3"/>
    <path id="Path_10" data-name="Path 10" d="M6.563,18.272a2.184,2.184,0,0,0,1.566-.793c-.727-2-.333-4.342-.483-6.526s-.83-3.481-2.189-3.481H5.438c-1.312,0-2.02,1.3-2.17,3.481s.267,4.778-.478,6.526a1.952,1.952,0,0,0,1.57.708h0a7.8,7.8,0,0,1-.047,1.433,1.1,1.1,0,0,1-.562.469,7.535,7.535,0,0,0-1.214.614,4.383,4.383,0,0,0-1.059,3.174H5.241a5.594,5.594,0,0,1,1.5-2.542A2.005,2.005,0,0,1,7.9,20.892a.55.55,0,0,0-.408-.708s-.806-.367-.9-.572A6.967,6.967,0,0,1,6.563,18.272Z" transform="translate(0 0)" fill="#29c4d3"/>
    <path id="Path_11" data-name="Path 11" d="M17.438,18.272a2.184,2.184,0,0,1-1.566-.793c.727-2,.333-4.342.483-6.526s.83-3.481,2.189-3.481h.019c1.313,0,2.02,1.3,2.17,3.481s-.267,4.778.478,6.526a1.952,1.952,0,0,1-1.57.708h0a7.8,7.8,0,0,0,.047,1.433,1.1,1.1,0,0,0,.563.469,7.535,7.535,0,0,1,1.214.614,4.383,4.383,0,0,1,1.059,3.174H18.759a5.594,5.594,0,0,0-1.5-2.542,2.005,2.005,0,0,0-1.158-.444.55.55,0,0,1,.408-.708s.806-.367.9-.572A6.967,6.967,0,0,0,17.438,18.272Z" transform="translate(10 0)" fill="#29c4d3"/>
  </g>
</svg>
