<svg xmlns="http://www.w3.org/2000/svg" width="20.995" height="23.75" viewBox="0 0 20.995 23.75">
  <path id="Icon_ionic-ios-paper" data-name="Icon ionic-ios-paper" d="M6.086,4.077V22.46a.759.759,0,0,1-.707.8h0a.759.759,0,0,1-.707-.8V5.9H3.865A1.729,1.729,0,0,0,2.25,7.731V24.173A1.729,1.729,0,0,0,3.865,26H21.686a1.672,1.672,0,0,0,1.559-1.764V4.077A1.729,1.729,0,0,0,21.63,2.25L7.6,2.364A1.55,1.55,0,0,0,6.086,4.077ZM9.417,5.9h4.239a.759.759,0,0,1,.707.8h0a.759.759,0,0,1-.707.8H9.417a.759.759,0,0,1-.707-.8h0A.759.759,0,0,1,9.417,5.9Zm0,9.135h7.469a.759.759,0,0,1,.707.8h0a.759.759,0,0,1-.707.8H9.417a.759.759,0,0,1-.707-.8h0A.759.759,0,0,1,9.417,15.038ZM19.309,21.2H9.417a.759.759,0,0,1-.707-.8h0a.759.759,0,0,1,.707-.8h9.892a.759.759,0,0,1,.707.8h0A.759.759,0,0,1,19.309,21.2Zm0-9.135H9.417a.759.759,0,0,1-.707-.8h0a.759.759,0,0,1,.707-.8h9.892a.759.759,0,0,1,.707.8h0A.759.759,0,0,1,19.309,12.07Z" transform="translate(-2.25 -2.25)" fill="#29c4d3"/>
</svg>
